<svg id="SvgjsSvg1016" width="288" height="288" xmlns="http://www.w3.org/2000/svg" version="1.1" xmlns:xlink="http://www.w3.org/1999/xlink" xmlns:svgjs="http://svgjs.com/svgjs"><defs id="SvgjsDefs1017"></defs><g id="SvgjsG1018"><svg xmlns="http://www.w3.org/2000/svg" viewBox="0 0 47.5 47.5" width="288" height="288"><defs><clipPath id="a"><path d="M0 38h38V0H0v38Z" fill="#ffffff" class="color000 svgShape"></path></clipPath></defs><g fill="#0ce5ff" clip-path="url(#a)" transform="matrix(1.25 0 0 -1.25 0 47.5)" class="color67757f svgShape"><path d="M1.652 28.22c-.884.601-.868 1.558.038 2.127l10.14 6.39c.904.569 1.644.18 1.644-.866V22.1c0-1.047-.723-1.413-1.607-.811L1.652 28.22Z" fill="#ffffff" class="color000 svgShape"></path><path d="M37 26a2 2 0 0 0-2-2H11a2 2 0 0 0-2 2v6a2 2 0 0 0 2 2h24a2 2 0 0 0 2-2v-6ZM3.297 3.165h1.788c.818 0 1.424.47 1.424 1.318 0 .712-.545 1.198-1.606 1.198H3.297V3.165Zm0 4.516h1.182c.742 0 1.227.439 1.227 1.196 0 .713-.56 1.076-1.227 1.076H3.297V7.681Zm-2.273 3.135c0 .728.5 1.137 1.197 1.137H5.13c1.576 0 2.849-1.06 2.849-2.667 0-1.06-.439-1.772-1.409-2.226v-.031c1.288-.182 2.303-1.258 2.303-2.576 0-2.137-1.424-3.288-3.515-3.288H2.236c-.697 0-1.212.439-1.212 1.151v8.5zM12.682 5.377h2.879l-1.41 4.395h-.03l-1.439-4.395Zm-.168 5.501c.258.696.85 1.257 1.621 1.257.805 0 1.365-.53 1.621-1.257l2.971-8.243c.092-.242.121-.454.121-.561 0-.591-.484-1-1.045-1-.637 0-.955.333-1.107.788l-.453 1.424H12.03l-.455-1.409c-.151-.47-.469-.803-1.09-.803-.607 0-1.122.454-1.122 1.061 0 .242.076.424.107.5l3.044 8.243zM24.06 12.135c1.106 0 3.258-.363 3.258-1.696 0-.546-.379-1.016-.94-1.016-.621 0-1.046.53-2.318.53-1.879 0-2.849-1.59-2.849-3.439 0-1.803.986-3.349 2.849-3.349 1.272 0 1.788.637 2.409.637.682 0 1-.682 1-1.03 0-1.455-2.288-1.788-3.409-1.788-3.076 0-5.212 2.439-5.212 5.576 0 3.151 2.121 5.575 5.212 5.575M28.531 10.923c0 .621.455 1.121 1.137 1.121.651 0 1.136-.424 1.136-1.121V7.651l3.727 3.969c.167.182.455.424.879.424.576 0 1.121-.439 1.121-1.091 0-.393-.242-.712-.742-1.212l-2.863-2.818 3.5-3.651c.363-.365.636-.698.636-1.153 0-.712-.561-1.045-1.182-1.045-.44 0-.727.258-1.152.712l-3.924 4.243V2.165c0-.591-.455-1.091-1.136-1.091-.652 0-1.137.424-1.137 1.091v8.758Z" fill="#ffffff" class="color000 svgShape"></path></g></svg></g></svg>